<?xml version="1.0" standalone="no"?>
<!DOCTYPE svg PUBLIC "-//W3C//DTD SVG 20010904//EN"
 "http://www.w3.org/TR/2001/REC-SVG-20010904/DTD/svg10.dtd">
<svg version="1.0" xmlns="http://www.w3.org/2000/svg"
 width="260.000000pt" height="260.000000pt" viewBox="0 0 260.000000 260.000000"
 preserveAspectRatio="xMidYMid meet">
<metadata>
Created by potrace 1.14, written by Peter Selinger 2001-2017
</metadata>
<g transform="translate(0.000000,260.000000) scale(0.100000,-0.100000)"
fill="#000000" stroke="none">
<path d="M1870 2023 c-202 -27 -358 -89 -550 -219 -117 -78 -163 -116 -266
-219 -170 -168 -376 -463 -414 -592 -11 -36 -11 -46 4 -67 17 -28 84 -51 171
-61 28 -3 61 -8 75 -10 48 -9 246 -17 405 -18 157 0 159 -1 65 -22 -8 -2 -28
-4 -45 -5 l-30 -2 34 -10 c19 -5 64 -8 100 -6 46 3 92 -3 150 -18 83 -21 161
-24 226 -8 17 4 106 8 200 10 142 3 286 18 273 29 -7 5 -258 19 -348 19 -52 0
-135 -4 -183 -9 -82 -7 -200 6 -211 24 -2 3 26 7 63 8 123 5 222 37 238 80 4
9 1 41 -6 72 -7 31 -14 74 -15 96 -3 53 40 282 64 340 4 11 22 61 40 110 18
50 61 150 96 224 35 74 64 146 64 161 0 36 -33 77 -68 84 -39 9 -103 13 -132
9z"/>
<path d="M1948 1220 c-49 -9 -90 -19 -93 -22 -10 -10 58 -17 120 -14 79 4 131
15 180 37 l40 18 -80 -2 c-44 -1 -119 -9 -167 -17z"/>
<path d="M569 1215 c-24 -7 -66 -22 -94 -34 -27 -13 -72 -25 -100 -27 -87 -9
-156 -25 -191 -46 -36 -21 -46 -35 -16 -23 9 4 73 11 142 14 114 6 131 9 194
39 65 32 134 60 166 67 8 2 26 8 40 14 21 8 14 10 -36 8 -33 0 -81 -6 -105
-12z"/>
<path d="M2065 1093 c-78 -17 -165 -19 -193 -4 -18 10 -21 9 -16 -4 4 -9 23
-24 43 -35 31 -15 50 -17 111 -12 80 7 200 8 345 2 84 -3 191 11 225 31 9 5
-25 8 -85 9 -55 0 -111 2 -125 4 -213 25 -230 25 -305 9z"/>
<path d="M594 1071 c-22 -17 -51 -39 -66 -51 -33 -25 -50 -77 -34 -103 22 -38
86 -60 199 -71 50 -5 37 6 -48 38 -76 28 -115 51 -115 67 0 5 19 31 43 57 69
76 81 92 70 92 -6 0 -28 -13 -49 -29z"/>
<path d="M269 1005 c-3 -2 -43 -7 -89 -10 -108 -7 -128 -12 -159 -37 l-26 -20
35 7 c19 5 40 8 45 7 98 -6 158 -2 214 17 35 12 74 21 85 22 21 0 21 1 1 9
-21 9 -99 13 -106 5z"/>
<path d="M2071 958 c-37 -8 -42 -12 -27 -20 20 -11 241 -21 270 -12 18 6 15 9
-19 21 -50 18 -166 23 -224 11z"/>
<path d="M390 823 c-48 -7 -119 -34 -132 -50 -10 -13 -10 -15 0 -9 49 29 158
26 268 -7 92 -28 108 -30 229 -27 72 2 194 4 272 4 85 1 133 4 120 9 -68 25
-164 36 -322 35 -142 -1 -183 2 -250 20 -86 22 -145 30 -185 25z"/>
<path d="M1308 644 c-2 -1 -23 -3 -48 -5 -50 -3 -127 -32 -150 -56 -13 -14
-13 -14 5 -5 43 20 166 30 225 17 63 -13 163 -17 221 -7 125 22 132 23 249 32
17 2 9 6 -25 15 -30 7 -88 10 -145 7 -140 -7 -229 -7 -282 -1 -26 3 -49 5 -50
3z"/>
</g>
</svg>
